# xmcd
#
# Track frame offsets:
#	150
#	29657
#	52037
#	75256
#	91166
#	110558
#	129206
#	154246
#	182364
#	211719
#	235001
#	258033
#	283434
#
# Disc length: 4217 seconds
#
# Revision: 1
# Processed by: cddbd v1.4PL0 Copyright (c) Steve Scherf et al.
# Submitted via: audiograbber 1.81.03
#
DISCID=a210770d
DTITLE=Charles Fambrough - Live at Zanzibar Blue
DYEAR=1900
DGENRE=Blues
TTITLE0=K-Mac
TTITLE1=On a Lite Tip
TTITLE2=Cat Eyes
TTITLE3=Koln
TTITLE4=Bossa for Grover
TTITLE5=Doc Tone
TTITLE6=Zanzibar Blue #1
TTITLE7=All Blues
TTITLE8=It MIght As Well Be Spring
TTITLE9=Waltz for Carla
TTITLE10=Fool's Play
TTITLE11=Prayer
TTITLE12=Zanzibar Blue #2
EXTD=
EXTT0=
EXTT1=
EXTT2=
EXTT3=
EXTT4=
EXTT5=
EXTT6=
EXTT7=
EXTT8=
EXTT9=
EXTT10=
EXTT11=
EXTT12=
PLAYORDER=
